<svg xmlns="http://www.w3.org/2000/svg" viewBox="0 0 48 48" width="48" height="48"><title>img stack</title><g class="nc-icon-wrapper"><path d="M8,7H40V4a1,1,0,0,0-1-1H9A1,1,0,0,0,8,4Z" data-color="color-2"/> <path d="M44,9H4a2,2,0,0,0-2,2V43a2,2,0,0,0,2,2H44a2,2,0,0,0,2-2V11A2,2,0,0,0,44,9ZM16,16a3,3,0,1,1-3,3A3,3,0,0,1,16,16ZM39.865,36.5A1,1,0,0,1,39,37H10a1,1,0,0,1-.8-1.6l6-8a1,1,0,0,1,.729-.4.976.976,0,0,1,.778.29l5.185,5.185L30.2,21.4a1,1,0,0,1,1.668.1l8,14A1,1,0,0,1,39.865,36.5Z"/></g></svg>