<svg xmlns="http://www.w3.org/2000/svg" viewBox="0 0 64 64" width="64" height="64"><title>business contact 85</title><g class="nc-icon-wrapper" stroke-linecap="square" stroke-linejoin="miter" stroke-width="2" fill="#38b2ac" stroke="#38b2ac"><line data-color="color-2" fill="none" stroke-miterlimit="10" x1="42" y1="53" x2="50" y2="53"/> <path data-cap="butt" fill="none" stroke="#38b2ac" stroke-miterlimit="10" d="M25,33.618V41L9.802,45.342 C6.368,46.323,4,49.463,4,53.034V62h56v-8.966c0-3.572-2.368-6.711-5.802-7.692L39,41v-7.382" stroke-linecap="butt"/> <path fill="none" stroke="#38b2ac" stroke-miterlimit="10" d="M32,36L32,36 c-7.732,0-14-8.268-14-16v-4c0-7.732,6.268-14,14-14h0c7.732,0,14,6.268,14,14v4C46,27.732,39.732,36,32,36z"/> <path data-cap="butt" fill="none" stroke="#38b2ac" stroke-miterlimit="10" d="M18.019,15.617 C20.105,16.497,22.478,17,25,17c4.915,0,9.264-1.9,12-4.822c2.162,2.309,5.34,3.962,9,4.562" stroke-linecap="butt"/> </g></svg>